<svg xmlns="http://www.w3.org/2000/svg" width="1200" height="630" viewBox="0 0 1200 630"><defs><linearGradient id="bg" x2="1" y2="1"><stop stop-color="#070b14"/><stop offset="1" stop-color="#0d2133"/></linearGradient><radialGradient id="g"><stop stop-color="#22d3ee" stop-opacity=".24"/><stop offset="1" stop-color="#22d3ee" stop-opacity="0"/></radialGradient></defs><rect width="1200" height="630" fill="url(#bg)"/><circle cx="930" cy="180" r="330" fill="url(#g)"/><g stroke="#22d3ee" stroke-opacity=".12"><path d="M0 100h1200M0 200h1200M0 300h1200M0 400h1200M0 500h1200M100 0v630M200 0v630M300 0v630M400 0v630M500 0v630M600 0v630M700 0v630M800 0v630M900 0v630M1000 0v630M1100 0v630"/></g><text x="90" y="220" fill="#22d3ee" font-family="Arial,sans-serif" font-size="30" font-weight="700">FULL-STACK .NET &amp; AI ENGINEER</text><text x="90" y="315" fill="#f8fafc" font-family="Arial,sans-serif" font-size="70" font-weight="800">Adhi Avinash Rane</text><text x="90" y="390" fill="#a8b7ca" font-family="Arial,sans-serif" font-size="32">Reliable full-stack products. Intelligent AI experiences.</text><rect x="90" y="455" width="340" height="58" rx="29" fill="#22d3ee"/><text x="130" y="494" fill="#041118" font-family="Arial,sans-serif" font-size="23" font-weight="700">C# · React · Python · SQL</text></svg>
